<?xml version="1.0" encoding="utf-8"?>
<!-- Generator: Adobe Illustrator 22.1.0, SVG Export Plug-In . SVG Version: 6.00 Build 0)  -->
<svg version="1.1" id="Layer_1" xmlns="http://www.w3.org/2000/svg" xmlns:xlink="http://www.w3.org/1999/xlink" x="0px" y="0px"
	 viewBox="0 0 34.6 34.5" style="enable-background:new 0 0 34.6 34.5;" xml:space="preserve">
<style type="text/css">
	.st0{fill:#00BFA5;}
	.st1{fill:none;stroke:#FFFFFF;stroke-width:0.91;stroke-miterlimit:10;}
</style>
<title>add-img</title>
<g id="Picture">
	<path class="st0" d="M6.8,4.3c1.7,0,3.1,1.3,3.1,3c0,1.7-1.3,3.1-3,3.1c-1.7,0-3.1-1.3-3.1-3c0,0,0,0,0,0C3.8,5.7,5.1,4.3,6.8,4.3
		C6.8,4.3,6.8,4.3,6.8,4.3z"/>
	<path class="st0" d="M17.8,8.9c-0.2-0.6-0.9-0.8-1.4-0.6c-0.3,0.1-0.5,0.3-0.6,0.6l-2.9,4.6c-0.5,0.9-1.6,1.2-2.5,0.7
		c0,0,0,0-0.1,0c-0.9-0.6-2.1-0.3-2.8,0.5l-2.9,3.4c-0.7,0.8-0.4,1.5,0.7,1.5h16.4c1.1,0,1.6-0.8,1-1.8L17.8,8.9z"/>
</g>
<path class="st0" d="M27.5,20.7V1c0-0.6-0.4-1-1-1H1C0.4,0,0,0.4,0,1v25.1c0,0.6,0.4,1,1,1h19.9C21,23.5,23.9,20.7,27.5,20.7z
	 M2.6,2.8h22v17.8h-22V2.8z"/>
<path class="st0" d="M27.5,20.9c-3.5,0-6.4,2.9-6.4,6.4c0,3.5,2.9,6.4,6.4,6.4s6.4-2.9,6.4-6.4v0C33.9,23.8,31,20.9,27.5,20.9z
	 M31.6,27.9h-3.5v3.5h-1.2v-3.5h-3.5v-1.2h3.5v-3.5h1.2v3.5h3.5V27.9z"/>
<path class="st1" d="M34.2,27.4c0,3.7-3,6.7-6.6,6.7s-6.7-3-6.7-6.6c0-3.7,3-6.7,6.6-6.7c0,0,0,0,0,0C31.2,20.7,34.2,23.7,34.2,27.4
	z"/>
</svg>
